<svg width="440" height="500" viewBox="0 0 44 50" fill="none" xmlns="http://www.w3.org/2000/svg">
<path fill-rule="evenodd" clip-rule="evenodd" d="M22 0.151855L22 0.151883V49.8482L22 49.8482C8.78584 40.4977 0.257812 25.7313 0.257812 9.11566C0.257812 8.87498 0.259602 8.6347 0.263169 8.3948C8.72638 8.39347 16.3987 5.24969 22 0.151855ZM43.7369 8.39479C35.2737 8.39346 27.6014 5.24968 22.0001 0.151855L22.0001 49.8482C35.2142 40.4977 43.7422 25.7313 43.7422 9.11565C43.7422 8.87497 43.7404 8.63468 43.7369 8.39479Z" fill="#323232"/>
<path fill-rule="evenodd" clip-rule="evenodd" d="M8.06499 14.3076C8.04448 14.3077 8.02397 14.3077 8.00345 14.3077C8.00115 14.4622 8 14.6169 8 14.7719C8 25.4709 13.4913 34.9791 22 41C24.4901 39.238 26.7217 37.1773 28.6329 34.8755L23.5541 29.7967C23.0584 29.9292 22.5375 29.9999 22 29.9999C18.6863 29.9999 16 27.3136 16 23.9999C16 23.4624 16.0707 22.9415 16.2032 22.4458L8.06499 14.3076ZM32.0815 29.8389C34.5861 25.3232 36 20.2008 36 14.7719C36 14.6169 35.9988 14.4622 35.9965 14.3077C30.547 14.3069 25.6067 12.2825 22 9C20.0927 10.7358 17.8126 12.1198 15.2814 13.0388L20.4458 18.2031C20.9415 18.0706 21.4625 17.9999 22 17.9999C25.3137 17.9999 28 20.6862 28 23.9999C28 24.5374 27.9293 25.0584 27.7968 25.5541L32.0815 29.8389Z" fill="#808080"/>
<path fill-rule="evenodd" clip-rule="evenodd" d="M22 29.9999C18.6863 29.9999 16 27.3136 16 23.9999C16 23.4625 16.0707 22.9415 16.2032 22.4459L8.06497 14.3076L8.00345 14.3077C8.00115 14.4622 8 14.617 8 14.772C8 25.4709 13.4913 34.9792 22 41.0001V29.9999ZM22 9C20.0927 10.7358 17.8126 12.1198 15.2814 13.0388L20.4458 18.2032C20.9415 18.0706 21.4625 17.9999 22 17.9999V9Z" fill="#A1A1A1"/>
<path d="M25 24C25 25.6569 23.6569 27 22 27C20.3431 27 19 25.6569 19 24C19 22.3431 20.3431 21 22 21C23.6569 21 25 22.3431 25 24Z" fill="#D5903F"/>
<path opacity="0.25" fill-rule="evenodd" clip-rule="evenodd" d="M22 21V27C20.3431 27 19 25.6569 19 24C19 22.3431 20.3431 21 22 21Z" fill="white"/>
</svg>
